<svg xmlns="http://www.w3.org/2000/svg" viewBox="0 0 1024 1024" fill="none">
  <defs>
    <linearGradient id="bg" x1="140" y1="120" x2="900" y2="930" gradientUnits="userSpaceOnUse">
      <stop offset="0" stop-color="#1F1F1F"/>
      <stop offset="1" stop-color="#070707"/>
    </linearGradient>
  </defs>

  <rect width="1024" height="1024" rx="230" fill="url(#bg)"/>

  <g transform="translate(256 256) scale(21.3333)" stroke="#FAFAFA" stroke-width="2" stroke-linecap="round" stroke-linejoin="round" fill="none">
    <path d="M14.4 14.4 9.6 9.6"/>
    <path d="M18.657 21.485a2 2 0 1 1-2.829-2.828l-1.767 1.768a2 2 0 1 1-2.829-2.829l6.364-6.364a2 2 0 1 1 2.829 2.829l-1.768 1.767a2 2 0 1 1 2.828 2.829z"/>
    <path d="m21.5 21.5-1.4-1.4"/>
    <path d="M3.9 3.9 2.5 2.5"/>
    <path d="M6.404 12.768a2 2 0 1 1-2.829-2.829l1.768-1.767a2 2 0 1 1-2.828-2.829l2.828-2.828a2 2 0 1 1 2.829 2.828l1.767-1.768a2 2 0 1 1 2.829 2.829z"/>
  </g>

  <rect x="164" y="164" width="696" height="696" rx="164" stroke="rgba(255,255,255,0.10)" stroke-width="16"/>
</svg>
