<?xml version="1.0" encoding="UTF-8"?>
<!-- Generated by Pixelmator Pro 3.7.1 -->
<svg width="2048" height="2048" viewBox="0 0 2048 2048" xmlns="http://www.w3.org/2000/svg">
    <path id="Background" fill="#00fb9c" fill-rule="evenodd" stroke="none" d="M 0 2048 L 2048 2048 L 2048 0 L 0 0 Z"/>
    <g id="DumbbellIcon">
        <path id="Pfad" fill="none" stroke="#000000" stroke-width="128.957611" stroke-linecap="round" stroke-linejoin="round" d="M 1384.740723 1074.512329 C 1435.112061 1124.883545 1516.780029 1124.883545 1567.151245 1074.512329 C 1617.522583 1024.141113 1617.522583 942.473145 1567.151245 892.101807 L 1453.15271 778.167725 C 1503.524048 828.52124 1585.17749 828.506714 1635.531006 778.135498 C 1685.884521 727.764282 1685.870117 646.110596 1635.498901 595.757202 L 1453.15271 413.411133 C 1402.799316 363.039917 1321.145752 363.025513 1270.774414 413.378906 C 1220.403198 463.732422 1220.388794 545.385986 1270.742188 595.757202 L 1156.808105 481.758789 C 1106.43689 431.387329 1024.768921 431.387329 974.397644 481.758789 C 924.026367 532.130005 924.026367 613.797974 974.397644 664.169189 Z"/>
        <path id="path1" fill="none" stroke="#000000" stroke-width="128.957611" stroke-linecap="round" stroke-linejoin="round" d="M 411.368713 1637.54126 L 501.639038 1547.270996"/>
        <path id="path2" fill="none" stroke="#000000" stroke-width="128.957611" stroke-linecap="round" stroke-linejoin="round" d="M 1546.195679 502.714233 L 1636.465942 412.44397"/>
        <path id="path3" fill="none" stroke="#000000" stroke-width="128.957611" stroke-linecap="round" stroke-linejoin="round" d="M 594.681946 1636.574097 C 645.0354 1686.945313 726.688965 1686.959717 777.060242 1636.606323 C 827.431519 1586.252808 827.445984 1504.599365 777.092468 1454.228027 L 891.02655 1568.226563 C 941.397827 1618.5979 1023.065796 1618.5979 1073.437012 1568.226563 C 1123.80835 1517.855225 1123.80835 1436.187256 1073.437012 1385.81604 L 663.093933 975.4729 C 612.722717 925.101563 531.054749 925.101563 480.683441 975.4729 C 430.312164 1025.844238 430.312164 1107.512207 480.683441 1157.883423 L 594.681946 1271.817505 C 544.310669 1221.463989 462.657135 1221.478516 412.30365 1271.849731 C 361.950195 1322.220947 361.96463 1403.874512 412.335907 1454.228027 Z"/>
        <path id="path4" fill="none" stroke="#000000" stroke-width="128.957611" stroke-linecap="round" stroke-linejoin="round" d="M 869.168274 1179.741699 L 1178.666504 870.24353"/>
    </g>
</svg>
